<?xml version="1.0" encoding="UTF-8"?><svg id="_レイヤー_2" xmlns="http://www.w3.org/2000/svg" width="207.99" height="46.19" viewBox="0 0 207.99 46.19"><defs><style>.cls-1,.cls-2{fill:#040000;}.cls-3{fill:#7dc4e7;}.cls-4{fill:#5b92c6;}.cls-2{stroke:#ebae44;stroke-miterlimit:7;stroke-width:.25px;}</style></defs><g id="_レイヤー_1-2"><g><g><path class="cls-3" d="M41.93,17.81h3.8C43.74,9.29,37,2.53,28.49,.5v3.84c1.74,.5,3.34,1.21,4.79,2.09,4.24,2.6,7.31,6.63,8.65,11.37h0Z"/><path class="cls-4" d="M21.4,46.13c1.12,.09,2.62,.07,3.69-.02,7.06-.6,13.36-4.35,17.29-10.28,.82-1.24,1.53-2.57,2.1-3.95,.89-2.16,1.44-4.45,1.64-6.81,.05-.58,.1-1.27,.1-1.98,0-.6-.04-1.19-.08-1.71H24.83V.06c-1.12-.09-2.62-.07-3.69,.02C14.08,.68,7.78,4.43,3.85,10.36c-.82,1.24-1.53,2.57-2.1,3.95-.89,2.16-1.44,4.45-1.64,6.81-.05,.58-.1,1.27-.1,1.97,0,.6,.04,1.19,.08,1.71H21.4v21.32h0Zm3.43-3.61v-6.81h6.23l-.19,.41c-1.5,3.18-3.51,5.4-5.64,6.25l-.39,.16h0Zm7.53-2.03l.6-1c.64-1.08,1.23-2.29,1.75-3.6l.07-.18h3.43l-.42,.47c-1.29,1.44-2.78,2.69-4.43,3.7l-.99,.61h0Zm8.15-8.21h-4.65l.09-.35c.52-2.16,.85-4.46,.96-6.84v-.27h5.82l-.03,.31c-.25,2.43-.96,4.79-2.11,7l-.08,.16h0Zm-8.21,0h-7.47v-7.47h8.67l-.02,.3c-.13,2.41-.52,4.75-1.13,6.95l-.06,.21h0Zm-10.9-10.89H12.73l.02-.3c.14-2.41,.52-4.75,1.13-6.96l.06-.21h7.47v7.47h0Zm-12.1,0H3.5l.03-.32c.25-2.43,.96-4.79,2.11-7l.08-.15h4.65l-.08,.35c-.52,2.16-.85,4.46-.96,6.84v.27h-.01Zm12.1-10.9h-6.23l.19-.41c1.5-3.18,3.5-5.4,5.64-6.25l.39-.16v6.82h0Zm-9.95,0h-3.43l.42-.48c1.29-1.44,2.78-2.69,4.43-3.7l.99-.61-.6,1c-.64,1.08-1.23,2.29-1.75,3.6l-.07,.18h0Z"/><path class="cls-3" d="M.5,28.38c1.99,8.51,8.73,15.28,17.24,17.3v-3.84c-1.73-.5-3.34-1.21-4.79-2.09-4.24-2.6-7.31-6.63-8.65-11.37H.5Z"/></g><g><path class="cls-1" d="M65.19,11.45v-1.73h1.96v1.73h2.77v1.95h-2.77v1.3h2.99v1.96h-2.43c1,1.77,2.1,2.55,2.67,2.93l-.81,2.32c-1.07-.84-1.87-1.96-2.43-3.18v3.96h-1.96v-4.27c-.62,1.33-1.51,2.52-2.59,3.52l-1.21-1.93c1.58-1.01,2.4-2.17,3.07-3.34h-2.4c.3,.38,.43,.51,.62,.68l-1.18,1.56c-.58-1.08-.64-1.36-.78-1.92v5.7h-1.89v-5.18c-.47,1.58-.97,2.36-1.29,2.82l-.65-2.7c.81-1.01,1.18-1.81,1.78-3.76h-1.52v-1.89h1.67v-2.26h1.89v2.26h1.3v.83c.66-1.27,.82-2.43,.88-2.85l1.84,.18c-.05,.34-.12,.69-.26,1.3h.71Zm-2.15,3.25l-1.12-.82h-1.19v.6c.26,.63,.74,1.38,1.3,2.12v-1.91h1.01Zm2.15,0v-1.3h-1.3c-.27,.66-.56,1.12-.69,1.3h1.99Z"/><path class="cls-1" d="M71.48,20.25c.08-.01,2.3-.16,2.55-.19v-3.29h-2.18v-1.99h6.41v1.99h-2.14v3.12c1.54-.17,2.15-.28,2.62-.36l.03,1.95c-1.55,.31-2.21,.38-7.07,.92l-.22-2.15Zm11.75-8.65h1.3v1.99h-3.82c.08,1.31,.23,3.77,1.02,5.56,.08,.21,.38,.92,.73,.92,.37,0,1.11-.95,1.44-1.87l.86,2.18c-.22,.62-.9,2.33-2.26,2.33-.63,0-1.29-.36-1.66-.77-1.99-2.17-2.14-6.11-2.22-8.36h-7.02v-1.99h6.95c-.01-.22-.07-1.81-.07-1.91h2.19v1.91h1.34c-.36-.52-.63-.93-1-1.27l1.77-.71c.2,.15,.38,.27,1.32,1.6l-.86,.38Z"/><path class="cls-1" d="M60.02,30.7c-1.08,.66-1.58,.86-2.08,1.06l-1.04-2.08c3.34-1.32,4.77-2.47,5.58-3.6h2.44c.59,.7,1.99,2.25,5.51,3.58l-1.07,2.07c-.41-.18-1.07-.47-2.04-1.06v.84h-7.29v-.8Zm7.88,8.58c-.14-.26-.29-.55-.55-.96-2.33,.33-6.99,.52-9.46,.59l-.33-2.12c.07,.01,1.81,.01,2,.01,.11-.22,.56-1.14,.96-2.37h-3.06v-1.97h12.36v1.97h-2.84c.62,.67,1.54,1.67,2.88,3.82l-1.97,1.03Zm-2.08-9.62c-1.19-.89-1.78-1.55-2.14-1.93-.33,.43-.86,1-2.11,1.93h4.25Zm.85,4.77h-3.85c-.49,1.15-.66,1.51-1.08,2.37,1.62-.01,3.1-.01,4.47-.15-.57-.77-.88-1.12-1.15-1.45l1.62-.77Z"/><path class="cls-1" d="M75.4,39.16h-2.08v-4.57c-.56,.48-1.06,.82-1.45,1.1l-.52-2.43c1.54-.92,2.8-2.4,3.25-3.29h-3v-1.92h1.73v-1.88h2.08v1.88h1.4v1.92c-.21,.51-.42,1.01-1.1,1.99,.75,.82,1.38,1.19,1.88,1.47l-1.03,1.96c-.29-.27-.66-.62-1.15-1.32v5.09Zm4.07-12.98h2.14v3.4h2.67v2.11h-2.67v5.02h2.88v2.08h-8.16v-2.08h3.14v-5.02h-2.47v-2.11h2.47v-3.4Z"/></g><g><path class="cls-2" d="M103,21.91l-1.84-1c-1.32-.72-2.22-1.33-2.67-1.8-.39-.41-.58-.88-.58-1.41,0-.65,.27-1.15,.83-1.56,.61-.44,1.45-.66,2.5-.66,1.45,0,3.48,.47,6.03,1.4l.77,.28v-5.28l-.45-.1c-2.59-.58-4.97-.88-7.04-.88-2.68,0-4.87,.67-6.52,2-1.69,1.36-2.54,3.18-2.54,5.42,0,1.67,.52,3.16,1.55,4.41,1,1.22,2.65,2.45,5.04,3.76l1.71,.93c1.32,.73,2.23,1.36,2.68,1.87,.4,.46,.6,1,.6,1.67,0,.84-.31,1.49-.96,1.98-.69,.52-1.66,.78-2.91,.78-1.88,0-4.2-.55-6.88-1.65l-.79-.32v5.61l.46,.09c2.75,.57,5.21,.86,7.3,.86,3.22,0,5.8-.7,7.66-2.09,1.91-1.43,2.88-3.42,2.88-5.92,0-1.76-.52-3.28-1.53-4.52-.99-1.21-2.72-2.47-5.29-3.88Z"/><polygon class="cls-2" points="128.48 21.69 119.75 21.69 119.75 11.53 113.26 11.53 113.26 37.69 119.75 37.69 119.75 26.28 128.48 26.28 128.48 37.69 134.96 37.69 134.96 11.53 128.48 11.53 128.48 21.69"/><rect class="cls-2" x="140.97" y="11.53" width="6.48" height="26.16"/><polygon class="cls-2" points="167.94 27.37 158.77 11.53 153.2 11.53 153.2 37.69 158.62 37.69 158.62 21.86 167.71 37.69 173.37 37.69 173.37 11.53 167.94 11.53 167.94 27.37"/><polygon class="cls-2" points="185.71 26.43 194.48 26.43 194.48 21.94 185.71 21.94 185.71 16.1 196.41 16.1 196.41 11.53 179.22 11.53 179.22 37.69 197.22 37.69 197.22 33 185.71 33 185.71 26.43"/><rect class="cls-2" x="201.38" y="11.53" width="6.48" height="26.16"/></g></g></g></svg>