<?xml version="1.0" encoding="UTF-8"?><svg id="_レイヤー_2" xmlns="http://www.w3.org/2000/svg" width="510.37" height="482.17" viewBox="0 0 510.37 482.17"><defs><style>.cls-1{fill:none;}.cls-2{opacity:.1;}.cls-3{fill:#fff;}</style></defs><g id="_レイヤー_2-2"><g class="cls-2"><path class="cls-3" d="M468.02,203.12h37.38c-19.58-83.72-85.81-150.2-169.46-170.12v37.75c17.06,4.94,32.89,11.85,47.08,20.55,41.68,25.52,71.84,65.2,85,111.82h0Z"/><path class="cls-3" d="M266.25,481.58c11.06,.92,25.77,.69,36.28-.21,69.38-5.91,131.37-42.75,170.03-101.04,8.1-12.22,15.06-25.29,20.65-38.86,8.76-21.21,14.19-43.74,16.17-66.95,.48-5.73,.99-12.51,.99-19.42,0-5.9-.36-11.72-.78-16.85h-209.63V28.63c-11.06-.91-25.76-.69-36.27,.21-69.39,5.91-131.37,42.74-170.04,101.04-8.11,12.22-15.05,25.29-20.65,38.86-8.75,21.2-14.19,43.72-16.16,66.95-.48,5.73-.99,12.52-.99,19.42,0,5.9,.37,11.72,.78,16.85h209.63v209.62h0Zm33.7-35.5v-67.01h61.21l-1.89,4c-14.77,31.23-34.46,53.06-55.47,61.47l-3.85,1.53h0Zm74.07-20l5.86-9.8c6.33-10.58,12.12-22.51,17.18-35.43l.7-1.78h33.72l-4.17,4.67c-12.66,14.2-27.32,26.42-43.56,36.37l-9.74,5.97h0Zm80.11-80.71h-45.7l.84-3.47c5.13-21.21,8.32-43.84,9.47-67.27l.14-2.67h57.06l-.32,3.1c-2.46,23.91-9.43,47.04-20.71,68.79l-.79,1.52h0Zm-80.76,0h-73.42v-73.41h85.26l-.17,2.96c-1.33,23.67-5.07,46.67-11.11,68.39l-.57,2.06h0Zm-107.12-107.11h-85.27l.17-2.96c1.33-23.67,5.07-46.68,11.1-68.39l.57-2.05h73.42v73.41h0Zm-118.93,0h-57.06l.32-3.1c2.45-23.91,9.42-47.05,20.69-68.8l.79-1.51h45.7l-.83,3.47c-5.15,21.21-8.34,43.84-9.49,67.27l-.13,2.68h0Zm118.93-107.11h-61.22l1.89-4.01c14.77-31.22,34.46-53.06,55.47-61.46l3.86-1.54v67.01h0Zm-97.82,0h-33.73l4.17-4.68c12.67-14.2,27.33-26.42,43.57-36.36l9.73-5.97-5.86,9.79c-6.33,10.59-12.11,22.51-17.19,35.43l-.7,1.78h0Z"/><path class="cls-3" d="M60.8,307.09c19.58,83.71,85.81,150.2,169.45,170.11v-37.74c-17.05-4.94-32.88-11.85-47.09-20.55-41.67-25.52-71.83-65.19-84.99-111.82H60.8Z"/></g><rect class="cls-1" width="493.92" height="439.62"/></g></svg>