<?xml version="1.0" encoding="UTF-8"?><svg id="_レイヤー_2" xmlns="http://www.w3.org/2000/svg" width="208.06" height="46.24" viewBox="0 0 208.06 46.24"><defs><style>.cls-1{fill:#fff;}</style></defs><g id="_レイヤー_1-2"><g><g><path class="cls-1" d="M41.97,17.82h3.81C43.78,9.3,37.04,2.53,28.52,.5v3.84c1.74,.5,3.35,1.21,4.79,2.09,4.24,2.6,7.31,6.64,8.65,11.38h0Z"/><path class="cls-1" d="M21.42,46.18c1.13,.09,2.62,.07,3.69-.02,7.06-.6,13.38-4.35,17.31-10.29,.83-1.24,1.53-2.58,2.1-3.96,.89-2.16,1.44-4.45,1.65-6.82,.05-.58,.1-1.27,.1-1.98,0-.6-.04-1.19-.08-1.72H24.85V.06c-1.13-.09-2.62-.07-3.69,.02C14.1,.68,7.79,4.43,3.85,10.37c-.83,1.24-1.53,2.58-2.1,3.96-.89,2.16-1.45,4.45-1.65,6.82-.05,.58-.1,1.27-.1,1.98,0,.6,.04,1.19,.08,1.72H21.42v21.34h0Zm3.43-3.61v-6.82h6.23l-.19,.41c-1.5,3.18-3.51,5.4-5.65,6.26l-.39,.16h0Zm7.54-2.04l.6-1c.64-1.08,1.23-2.29,1.75-3.61l.07-.18h3.43l-.42,.48c-1.29,1.45-2.78,2.69-4.44,3.7l-.99,.61h0Zm8.16-8.22h-4.65l.09-.35c.52-2.16,.85-4.46,.96-6.85v-.27h5.82l-.03,.32c-.25,2.43-.96,4.79-2.11,7l-.08,.15h0Zm-8.22,0h-7.48v-7.47h8.68l-.02,.3c-.14,2.41-.52,4.75-1.13,6.96l-.06,.21h0Zm-10.91-10.91H12.74l.02-.3c.14-2.41,.52-4.75,1.13-6.96l.06-.21h7.48v7.47h0Zm-12.11,0H3.5l.03-.32c.25-2.43,.96-4.79,2.11-7l.08-.15h4.65l-.08,.35c-.52,2.16-.85,4.46-.97,6.85v.27h-.01Zm12.11-10.91h-6.23l.19-.41c1.5-3.18,3.51-5.4,5.65-6.26l.39-.16v6.82h0Zm-9.96,0h-3.43l.42-.48c1.29-1.45,2.78-2.69,4.44-3.7l.99-.61-.6,1c-.64,1.08-1.23,2.29-1.75,3.61l-.07,.18h0Z"/><path class="cls-1" d="M.51,28.41c1.99,8.52,8.74,15.29,17.25,17.32v-3.84c-1.74-.5-3.35-1.21-4.79-2.09-4.24-2.6-7.31-6.64-8.65-11.38H.51Z"/></g><g><path class="cls-1" d="M65.25,11.46v-1.73h1.96v1.73h2.77v1.95h-2.77v1.3h2.99v1.96h-2.43c1,1.77,2.1,2.55,2.68,2.94l-.81,2.32c-1.07-.84-1.87-1.96-2.43-3.18v3.96h-1.96v-4.28c-.62,1.33-1.51,2.52-2.59,3.53l-1.21-1.94c1.58-1.01,2.4-2.17,3.07-3.35h-2.4c.3,.38,.43,.51,.62,.69l-1.18,1.56c-.58-1.08-.65-1.36-.78-1.92v5.71h-1.89v-5.19c-.47,1.58-.97,2.36-1.29,2.83l-.65-2.7c.81-1.02,1.18-1.81,1.78-3.76h-1.52v-1.89h1.67v-2.26h1.89v2.26h1.3v.84c.66-1.28,.82-2.43,.88-2.85l1.84,.18c-.05,.34-.12,.69-.26,1.3h.71Zm-2.15,3.25l-1.12-.82h-1.19v.6c.26,.63,.74,1.39,1.3,2.13v-1.91h1.02Zm2.15,0v-1.3h-1.3c-.27,.66-.56,1.12-.69,1.3h1.99Z"/><path class="cls-1" d="M71.55,20.27c.08-.01,2.31-.16,2.55-.19v-3.29h-2.18v-1.99h6.42v1.99h-2.14v3.13c1.54-.16,2.15-.28,2.62-.36l.03,1.95c-1.55,.32-2.21,.38-7.08,.92l-.22-2.15Zm11.76-8.66h1.3v1.99h-3.83c.08,1.32,.23,3.77,1.02,5.57,.08,.21,.38,.92,.73,.92,.37,0,1.11-.95,1.44-1.87l.86,2.18c-.22,.62-.91,2.33-2.26,2.33-.63,0-1.29-.36-1.66-.77-1.99-2.17-2.14-6.12-2.22-8.37h-7.02v-1.99h6.96c-.01-.22-.07-1.81-.07-1.91h2.19v1.91h1.34c-.36-.52-.63-.93-1-1.28l1.77-.71c.21,.15,.38,.27,1.32,1.61l-.86,.38Z"/><path class="cls-1" d="M60.08,30.73c-1.08,.66-1.58,.86-2.09,1.06l-1.04-2.09c3.35-1.32,4.77-2.47,5.58-3.61h2.44c.59,.7,1.99,2.25,5.52,3.58l-1.07,2.07c-.41-.18-1.07-.47-2.04-1.06v.84h-7.3v-.8Zm7.89,8.59c-.14-.26-.29-.55-.55-.96-2.33,.33-7,.52-9.47,.59l-.33-2.13c.07,.01,1.81,.01,2,.01,.11-.22,.56-1.14,.96-2.37h-3.06v-1.98h12.37v1.98h-2.84c.62,.67,1.54,1.67,2.88,3.83l-1.98,1.03Zm-2.09-9.63c-1.19-.89-1.78-1.55-2.14-1.94-.33,.43-.87,1-2.11,1.94h4.25Zm.85,4.77h-3.86c-.49,1.15-.66,1.51-1.08,2.37,1.62-.01,3.1-.01,4.47-.15-.58-.77-.88-1.12-1.15-1.45l1.62-.77Z"/><path class="cls-1" d="M75.48,39.2h-2.08v-4.57c-.56,.48-1.06,.82-1.45,1.1l-.52-2.43c1.54-.92,2.8-2.4,3.25-3.29h-3v-1.92h1.73v-1.88h2.08v1.88h1.4v1.92c-.21,.51-.43,1.02-1.1,1.99,.75,.82,1.39,1.19,1.88,1.47l-1.03,1.96c-.29-.27-.66-.62-1.15-1.32v5.09Zm4.07-12.99h2.14v3.4h2.68v2.11h-2.68v5.02h2.88v2.09h-8.16v-2.09h3.14v-5.02h-2.47v-2.11h2.47v-3.4Z"/></g><g><path class="cls-1" d="M103.1,21.93l-1.84-1c-1.32-.72-2.22-1.33-2.67-1.81-.39-.41-.59-.88-.59-1.42,0-.65,.27-1.16,.83-1.56,.61-.44,1.45-.66,2.5-.66,1.45,0,3.48,.47,6.04,1.4l.77,.28v-5.29l-.45-.1c-2.6-.58-4.97-.88-7.05-.88-2.68,0-4.88,.67-6.53,2-1.69,1.36-2.55,3.18-2.55,5.42,0,1.67,.52,3.16,1.55,4.42,1.01,1.22,2.66,2.46,5.05,3.77l1.72,.93c1.33,.73,2.23,1.36,2.68,1.87,.4,.46,.6,1,.6,1.67,0,.85-.31,1.49-.96,1.98-.69,.52-1.67,.78-2.91,.78-1.88,0-4.2-.55-6.88-1.65l-.79-.32v5.61l.46,.09c2.75,.57,5.21,.86,7.3,.86,3.22,0,5.8-.7,7.67-2.09,1.91-1.43,2.88-3.42,2.88-5.93,0-1.76-.52-3.29-1.54-4.52-.99-1.21-2.73-2.48-5.29-3.88Z"/><polygon class="cls-1" points="128.61 21.71 119.86 21.71 119.86 11.54 113.37 11.54 113.37 37.73 119.86 37.73 119.86 26.3 128.61 26.3 128.61 37.73 135.1 37.73 135.1 11.54 128.61 11.54 128.61 21.71"/><rect class="cls-1" x="141.11" y="11.54" width="6.49" height="26.19"/><polygon class="cls-1" points="168.11 27.39 158.92 11.54 153.35 11.54 153.35 37.73 158.78 37.73 158.78 21.88 167.87 37.73 173.54 37.73 173.54 11.54 168.11 11.54 168.11 27.39"/><polygon class="cls-1" points="185.89 26.46 194.67 26.46 194.67 21.96 185.89 21.96 185.89 16.12 196.6 16.12 196.6 11.54 179.4 11.54 179.4 37.73 197.42 37.73 197.42 33.03 185.89 33.03 185.89 26.46"/><rect class="cls-1" x="201.57" y="11.54" width="6.49" height="26.19"/></g></g></g></svg>